<svg width="120" height="120" viewBox="0 0 120 120" fill="none" xmlns="http://www.w3.org/2000/svg">
  <defs>
    <linearGradient id="connecthubGradient" x1="0" y1="0" x2="120" y2="120">
      <stop offset="0%" stop-color="#6D5DFC"/>
      <stop offset="100%" stop-color="#8B5CF6"/>
    </linearGradient>
  </defs>

  <!-- Chat Bubble C -->
  <path
    d="M60 12
       C33 12 12 33 12 60
       C12 87 33 108 60 108
       L48 118
       L52 102
       C81 100 102 81 102 60
       C102 33 81 12 60 12Z"
    fill="url(#connecthubGradient)"
  />

  <!-- Inner White Circle -->
  <circle cx="58" cy="60" r="28" fill="white"/>

  <!-- Chat Dots -->
  <circle cx="48" cy="60" r="3.5" fill="#6D5DFC"/>
  <circle cx="58" cy="60" r="3.5" fill="#6D5DFC"/>
  <circle cx="68" cy="60" r="3.5" fill="#6D5DFC"/>

  <!-- Network Nodes -->
  <circle cx="80" cy="25" r="5" fill="#8B5CF6"/>
  <circle cx="95" cy="42" r="5" fill="#8B5CF6"/>
  <circle cx="90" cy="62" r="5" fill="#8B5CF6"/>

  <line x1="80" y1="25" x2="95" y2="42" stroke="#8B5CF6" stroke-width="2"/>
  <line x1="95" y1="42" x2="90" y2="62" stroke="#8B5CF6" stroke-width="2"/>
</svg>